<svg id="Layer_2" data-name="Layer 2" xmlns="http://www.w3.org/2000/svg" viewBox="0 0 82 82"><defs><style>.cls-1,.cls-4{fill:#fef901;}.cls-1,.cls-2,.cls-4{stroke:#000;stroke-miterlimit:10;}.cls-2{fill:#a6c4cd;}.cls-3{fill:#a84b3e;}.cls-4{stroke-width:0.61px;}</style></defs><title>logo</title><circle class="cls-1" cx="41" cy="41" r="40.5"/><circle class="cls-2" cx="41.19" cy="41.44" r="23.06"/><path class="cls-3" d="M-1155.35,54a3,3,0,0,1,2.74-1.8,3,3,0,0,1,2.73,1.78,15.62,15.62,0,0,1,.7-1.41l1.66-2.88V49c0-1.7-.81-3.08-1.8-3.08a1.67,1.67,0,0,0-1.8,1.5,1.51,1.51,0,0,1-1.5,1.5,1.51,1.51,0,0,1-1.5-1.5,1.67,1.67,0,0,0-1.8-1.5c-1,0-1.8,1.39-1.8,3.08v0.83l1.7,2.95C-1155.79,53.13-1155.57,53.57-1155.35,54Z" transform="translate(1193.52 -27.76)"/><path class="cls-3" d="M-1147.59,54.58a3,3,0,0,1,3.27-.19,3,3,0,0,1,1.47,2.9c0.46-.34.91-0.64,1.31-0.87l2.88-1.66,0.38-.65c0.85-1.47.84-3.07,0-3.57a1.67,1.67,0,0,0-2.31.4,1.51,1.51,0,0,1-2.05.55,1.51,1.51,0,0,1-.55-2.05,1.68,1.68,0,0,0-.8-2.2c-0.86-.49-2.25.3-3.1,1.77l-0.41.72v3.4C-1147.51,53.57-1147.54,54.06-1147.59,54.58Z" transform="translate(1193.52 -27.76)"/><path class="cls-3" d="M-1141.14,58.93a3,3,0,0,1,2.93,1.47,3,3,0,0,1-.18,3.25c0.57-.06,1.11-0.09,1.57-0.09h3.33l0.65-.38c1.47-.85,2.27-2.24,1.77-3.1a1.68,1.68,0,0,0-2.2-.8,1.51,1.51,0,0,1-2.05-.55,1.51,1.51,0,0,1,.55-2.05,1.68,1.68,0,0,0,.4-2.31c-0.49-.85-2.1-0.86-3.57,0l-0.72.41-1.7,2.95C-1140.56,58.08-1140.84,58.5-1141.14,58.93Z" transform="translate(1193.52 -27.76)"/><path class="cls-3" d="M-1131.08,70.15a1.51,1.51,0,0,1-1.5-1.5,1.5,1.5,0,0,1,1.5-1.5,1.68,1.68,0,0,0,1.5-1.8c0-1-1.39-1.8-3.08-1.8h-0.83l-2.95,1.7c-0.37.21-.81,0.44-1.29,0.65a3,3,0,0,1,1.8,2.74,3,3,0,0,1-1.78,2.73c0.52,0.23,1,.47,1.41.7l2.88,1.66h0.75c1.7,0,3.08-.81,3.08-1.8A1.67,1.67,0,0,0-1131.08,70.15Z" transform="translate(1193.52 -27.76)"/><path class="cls-3" d="M-1138.26,73.67a3,3,0,0,1,.19,3.27,3,3,0,0,1-2.9,1.47c0.34,0.46.64,0.91,0.87,1.31l1.66,2.88,0.65,0.38c1.47,0.85,3.07.84,3.57,0a1.67,1.67,0,0,0-.4-2.31,1.51,1.51,0,0,1-.55-2.05,1.5,1.5,0,0,1,2.05-.55,1.68,1.68,0,0,0,2.2-.81c0.49-.86-0.3-2.25-1.77-3.1l-0.71-.41h-3.4C-1137.25,73.75-1137.74,73.72-1138.26,73.67Z" transform="translate(1193.52 -27.76)"/><path class="cls-3" d="M-1142.61,80.11a3,3,0,0,1-1.47,2.93,3,3,0,0,1-3.25-.18c0.06,0.57.09,1.11,0.09,1.57v3.33l0.38,0.65c0.85,1.47,2.24,2.27,3.1,1.77a1.67,1.67,0,0,0,.8-2.2,1.51,1.51,0,0,1,.55-2.05,1.51,1.51,0,0,1,2.05.55,1.67,1.67,0,0,0,2.31.4c0.86-.49.86-2.1,0-3.57l-0.41-.72-2.94-1.7C-1141.76,80.69-1142.18,80.42-1142.61,80.11Z" transform="translate(1193.52 -27.76)"/><path class="cls-3" d="M-1149.59,83.53a3,3,0,0,1-2.74,1.8,3,3,0,0,1-2.73-1.78c-0.23.52-.47,1-0.7,1.41l-1.66,2.88v0.75c0,1.7.81,3.08,1.8,3.08a1.67,1.67,0,0,0,1.8-1.5,1.51,1.51,0,0,1,1.5-1.5,1.51,1.51,0,0,1,1.5,1.5,1.67,1.67,0,0,0,1.8,1.5c1,0,1.8-1.39,1.8-3.08V87.77l-1.7-2.94C-1149.15,84.45-1149.37,84-1149.59,83.53Z" transform="translate(1193.52 -27.76)"/><path class="cls-3" d="M-1157.35,83a3,3,0,0,1-3.27.19,3,3,0,0,1-1.47-2.9c-0.46.34-.91,0.64-1.31,0.87l-2.88,1.66-0.38.65c-0.85,1.47-.84,3.07,0,3.57a1.67,1.67,0,0,0,2.31-.4,1.51,1.51,0,0,1,2.05-.55,1.51,1.51,0,0,1,.55,2.05,1.67,1.67,0,0,0,.8,2.2c0.86,0.49,2.25-.3,3.1-1.77l0.41-.72v-3.4C-1157.43,84-1157.4,83.52-1157.35,83Z" transform="translate(1193.52 -27.76)"/><path class="cls-3" d="M-1163.8,78.65a3,3,0,0,1-2.93-1.47,3,3,0,0,1,.18-3.25c-0.57.06-1.11,0.09-1.57,0.09h-3.33l-0.65.38c-1.47.85-2.27,2.24-1.77,3.1a1.67,1.67,0,0,0,2.2.8,1.51,1.51,0,0,1,2.05.55,1.5,1.5,0,0,1-.55,2.05,1.67,1.67,0,0,0-.4,2.31c0.49,0.86,2.1.86,3.57,0l0.72-.41,1.7-2.95C-1164.37,79.49-1164.1,79.08-1163.8,78.65Z" transform="translate(1193.52 -27.76)"/><path class="cls-3" d="M-1167.21,71.67a3,3,0,0,1-1.8-2.74,3,3,0,0,1,1.78-2.73,15.35,15.35,0,0,1-1.41-.7l-2.88-1.66h-0.75c-1.7,0-3.08.81-3.08,1.8a1.67,1.67,0,0,0,1.5,1.8,1.51,1.51,0,0,1,1.5,1.5,1.51,1.51,0,0,1-1.5,1.5,1.67,1.67,0,0,0-1.5,1.8c0,1,1.39,1.8,3.08,1.8h0.83l2.95-1.7C-1168.13,72.11-1167.69,71.88-1167.21,71.67Z" transform="translate(1193.52 -27.76)"/><path class="cls-3" d="M-1166.67,63.91a3,3,0,0,1-.19-3.27,3,3,0,0,1,2.9-1.47c-0.34-.46-0.64-0.91-0.87-1.31l-1.66-2.88-0.65-.38c-1.47-.85-3.07-0.84-3.57,0a1.67,1.67,0,0,0,.4,2.31,1.51,1.51,0,0,1,.55,2.05,1.51,1.51,0,0,1-2.05.55,1.67,1.67,0,0,0-2.2.81c-0.49.85,0.3,2.25,1.77,3.1l0.72,0.41h3.4C-1167.69,63.83-1167.2,63.86-1166.67,63.91Z" transform="translate(1193.52 -27.76)"/><path class="cls-3" d="M-1162.33,57.46a3,3,0,0,1,1.47-2.93,3,3,0,0,1,3.25.18c-0.06-.57-0.09-1.11-0.09-1.57V49.81l-0.38-.65c-0.85-1.47-2.24-2.27-3.1-1.77a1.67,1.67,0,0,0-.8,2.2,1.51,1.51,0,0,1-.55,2.05,1.51,1.51,0,0,1-2.05-.55,1.67,1.67,0,0,0-2.31-.4c-0.86.49-.86,2.1,0,3.57l0.41,0.72,2.95,1.7C-1163.17,56.88-1162.76,57.16-1162.33,57.46Z" transform="translate(1193.52 -27.76)"/><path class="cls-3" d="M-1152.47,68.66h0l0,0A0.17,0.17,0,0,0-1152.47,68.66Z" transform="translate(1193.52 -27.76)"/><path class="cls-3" d="M-1152.42,68.67l0,0h0Z" transform="translate(1193.52 -27.76)"/><path class="cls-3" d="M-1152.36,68.71a0.05,0.05,0,0,1,0,0,0,0,0,0,1,0,0Z" transform="translate(1193.52 -27.76)"/><path class="cls-3" d="M-1152.44,68.65l0,0s0,0,0-.08l0,0.07Z" transform="translate(1193.52 -27.76)"/><path class="cls-3" d="M-1148.24,62.15a55.1,55.1,0,0,0,2.51-8.29l0.16-.4a45.54,45.54,0,0,0-6.55,7.46,30.55,30.55,0,0,1,.42,3.54A13,13,0,0,1-1148.24,62.15Z" transform="translate(1193.52 -27.76)"/><path class="cls-3" d="M-1152.34,68.76s0,0,0,0l0,0A0.18,0.18,0,0,0-1152.34,68.76Z" transform="translate(1193.52 -27.76)"/><path class="cls-3" d="M-1145.48,65.15a55.14,55.14,0,0,0,6.32-5.92l0.33-.25a45.15,45.15,0,0,0-9.4,3.18,29.59,29.59,0,0,1-1.4,3.27A13.29,13.29,0,0,1-1145.48,65.15Z" transform="translate(1193.52 -27.76)"/><path class="cls-3" d="M-1152.38,68.67h0s0,0,0-.08,0,0-.08,0Z" transform="translate(1193.52 -27.76)"/><path class="cls-3" d="M-1152.35,68.83l0,0a0.1,0.1,0,0,0,0,0S-1152.35,68.8-1152.35,68.83Z" transform="translate(1193.52 -27.76)"/><path class="cls-3" d="M-1152.34,68.73l0,0a0.26,0.26,0,0,0,.05-0.06,0.24,0.24,0,0,1-.08,0S-1152.34,68.71-1152.34,68.73Z" transform="translate(1193.52 -27.76)"/><path class="cls-3" d="M-1135.75,67.09a45.74,45.74,0,0,0-9.73-1.94,31.67,31.67,0,0,1-2.85,2.14,13.12,13.12,0,0,1,3.73,1.83,55.25,55.25,0,0,0,8.43-2Z" transform="translate(1193.52 -27.76)"/><path class="cls-3" d="M-1152.39,68.88l0,0a0,0,0,0,0,0,0Z" transform="translate(1193.52 -27.76)"/><path class="cls-3" d="M-1145.82,73a56.69,56.69,0,0,0,8.29,2.5l0.39,0.16a45.72,45.72,0,0,0-7.46-6.56,30.14,30.14,0,0,1-3.54.42A13.24,13.24,0,0,1-1145.82,73Z" transform="translate(1193.52 -27.76)"/><path class="cls-3" d="M-1152.33,68.8a0.36,0.36,0,0,1,0,0l0.08,0-0.07-.06Z" transform="translate(1193.52 -27.76)"/><path class="cls-3" d="M-1151.09,67.37a11,11,0,0,0,1.46-1.95,4,4,0,0,0-2.34,1.45,10.71,10.71,0,0,0,.28-2.4,3.93,3.93,0,0,0-1.3,2.42,10.77,10.77,0,0,0-1-2.23,4,4,0,0,0,.09,2.76,10.83,10.83,0,0,0-1.94-1.45,4,4,0,0,0,1.45,2.34,10.59,10.59,0,0,0-2.41-.29,3.93,3.93,0,0,0,2.42,1.3,10.74,10.74,0,0,0-2.23,1,4,4,0,0,0,2.76-.09,11.56,11.56,0,0,0-1.46,1.95,3.93,3.93,0,0,0,2.34-1.46,10.64,10.64,0,0,0-.29,2.42,4,4,0,0,0,1.3-2.43,10.83,10.83,0,0,0,1,2.23,3.92,3.92,0,0,0-.08-2.75,11.42,11.42,0,0,0,1.94,1.45,4,4,0,0,0-1.46-2.35,10.94,10.94,0,0,0,2.41.28,4,4,0,0,0-2.43-1.3,11.1,11.1,0,0,0,2.23-1A4,4,0,0,0-1151.09,67.37Zm-1,1.57-0.22,0c0,0.07,0,.13.09,0.21a1.41,1.41,0,0,0-.18-0.13c0,0.07,0,.13,0,0.22s-0.05-.13-0.09-0.21a2.06,2.06,0,0,0-.13.18c0-.07,0-0.14,0-0.22s-0.14,0-.21.08,0.09-.11.14-0.18-0.13,0-.22,0l0.2-.08c-0.08,0-.1-0.1-0.18-0.14l0.23,0c0-.06,0-0.13-0.09-0.2s0.11,0.09.18,0.13a1.58,1.58,0,0,0,0-.22c0,0.06,0,.13.08,0.2a1.35,1.35,0,0,0,.14-0.18c0,0.08,0,.14,0,0.23a1.46,1.46,0,0,0,.21-0.09c0,0.07-.09.11-0.13,0.18a2.08,2.08,0,0,0,.23,0,2.1,2.1,0,0,0-.21.09C-1152.16,68.84-1152.13,68.91-1152.06,68.94Z" transform="translate(1193.52 -27.76)"/><path class="cls-3" d="M-1152.44,68.9h0l0,0Z" transform="translate(1193.52 -27.76)"/><path class="cls-3" d="M-1148.82,75.75a55.52,55.52,0,0,0,5.92,6.31l0.26,0.34a45.6,45.6,0,0,0-3.19-9.4,31.5,31.5,0,0,1-3.27-1.4A13.21,13.21,0,0,1-1148.82,75.75Z" transform="translate(1193.52 -27.76)"/><path class="cls-3" d="M-1152.35,68.86s0,0,0,0h0.08s0,0,0-.08Z" transform="translate(1193.52 -27.76)"/><path class="cls-3" d="M-1152.5,68.89l0,0h0Z" transform="translate(1193.52 -27.76)"/><path class="cls-3" d="M-1152.79,76.63a55.78,55.78,0,0,0,2,8.44l0.06,0.42a45.79,45.79,0,0,0,1.94-9.74A32.28,32.28,0,0,1-1151,72.9,13,13,0,0,1-1152.79,76.63Z" transform="translate(1193.52 -27.76)"/><path class="cls-3" d="M-1152.4,68.9l0,0,0.06,0.06a0.46,0.46,0,0,0,0-.09h0Z" transform="translate(1193.52 -27.76)"/><path class="cls-3" d="M-1152.55,68.85a0.06,0.06,0,0,1,0,0h0Z" transform="translate(1193.52 -27.76)"/><path class="cls-3" d="M-1156.67,75.41a55.65,55.65,0,0,0-2.51,8.29l-0.17.41a45.59,45.59,0,0,0,6.56-7.48,29.84,29.84,0,0,1-.42-3.53A13.26,13.26,0,0,1-1156.67,75.41Z" transform="translate(1193.52 -27.76)"/><path class="cls-3" d="M-1152.47,68.91l0,0a0.54,0.54,0,0,0,0,.08s0,0,.05-0.06Z" transform="translate(1193.52 -27.76)"/><path class="cls-3" d="M-1152.57,68.8a0,0,0,0,0,0,0l0,0A0.21,0.21,0,0,0-1152.57,68.8Z" transform="translate(1193.52 -27.76)"/><path class="cls-3" d="M-1159.43,72.42a55.41,55.41,0,0,0-6.31,5.91l-0.36.28a45.64,45.64,0,0,0,9.43-3.2,30.4,30.4,0,0,1,1.4-3.28A13.19,13.19,0,0,1-1159.43,72.42Z" transform="translate(1193.52 -27.76)"/><path class="cls-3" d="M-1152.54,68.88a0.06,0.06,0,0,1,0,0s0,0.06,0,.08l0.07,0A0.25,0.25,0,0,1-1152.54,68.88Z" transform="translate(1193.52 -27.76)"/><path class="cls-3" d="M-1152.56,68.74l0,0a0.13,0.13,0,0,1,0,0S-1152.56,68.75-1152.56,68.74Z" transform="translate(1193.52 -27.76)"/><path class="cls-3" d="M-1152.57,68.83l0,0a0.62,0.62,0,0,0,0,.07,0.24,0.24,0,0,1,.08,0S-1152.57,68.85-1152.57,68.83Z" transform="translate(1193.52 -27.76)"/><path class="cls-3" d="M-1160.3,68.45a55.36,55.36,0,0,0-8.44,2l-0.44.06a46.48,46.48,0,0,0,9.76,1.94,29.35,29.35,0,0,1,2.86-2.14A13.37,13.37,0,0,1-1160.3,68.45Z" transform="translate(1193.52 -27.76)"/><path class="cls-3" d="M-1152.53,68.69h0s0,0,0,0Z" transform="translate(1193.52 -27.76)"/><path class="cls-3" d="M-1152.12,60.93a55.3,55.3,0,0,0-2-8.44l-0.06-.4a45.82,45.82,0,0,0-1.94,9.73,30,30,0,0,1,2.13,2.84A13.21,13.21,0,0,1-1152.12,60.93Z" transform="translate(1193.52 -27.76)"/><path class="cls-3" d="M-1152.51,68.66l0,0-0.07,0a0.63,0.63,0,0,1,0,.08h0Z" transform="translate(1193.52 -27.76)"/><path class="cls-3" d="M-1152.56,68.7a0.12,0.12,0,0,0,0,0h-0.08a0.8,0.8,0,0,0,0,.08Z" transform="translate(1193.52 -27.76)"/><path class="cls-3" d="M-1156.08,61.81a55.4,55.4,0,0,0-5.93-6.33l-0.26-.33a45.61,45.61,0,0,0,3.19,9.41,31.68,31.68,0,0,1,3.28,1.4A12.91,12.91,0,0,1-1156.08,61.81Z" transform="translate(1193.52 -27.76)"/><path class="cls-3" d="M-1152.59,68.76s0,0,0,0l-0.08,0,0.06,0A0.21,0.21,0,0,0-1152.59,68.76Z" transform="translate(1193.52 -27.76)"/><path class="cls-3" d="M-1159.09,64.56a55.59,55.59,0,0,0-8.29-2.51l-0.41-.17a45.83,45.83,0,0,0,7.49,6.57,30.54,30.54,0,0,1,3.54-.43A13,13,0,0,1-1159.09,64.56Z" transform="translate(1193.52 -27.76)"/><path class="cls-4" d="M-1140.86,48.79l-0.64-.44-1.3.24-0.06-.28-0.38.27-0.25-.54-0.38.07-0.57-.41,0-.42-0.31,0-0.6-.25-0.17.11-0.2-1.38-0.35-.06L-1146,45l0.13-.3h0.4l0.29-.83-1-.52-0.69.38-0.27-.06-0.46-.49-0.91.31L-1149,43l-0.61-.11,0-.36-0.82-.84-0.3.38-1.56.71,0.17,0.67-0.47.45-0.43-.13-0.91.56-0.25-.15,0-.39-0.51.16-0.28.33-0.24.84-1.18-1.13-0.43.76-0.7-.8-0.9,1.36-0.55-.15-0.11-.34-0.64-.45-0.94-.19-0.34.57-0.32.73-0.43.07,1.74,1.94,0.17,0.86h0.28l0.36-.69,0,0.48,0.43,0.15-0.41.94,0.28-.08-0.19.59-0.29.14,0.36,0.15,0.2,0.58,0.83,0.9,0.72,0.2,0.24-.19,0.78,0.62,0.43-.68,0.69-.26,0.67-.15,1.57,1.11-0.28.53-0.25-.08-0.36.39,0.89,0.11,0.27,0.25-0.14.48,0.65,0,0.36,0.25,0.12,0.53-0.67.4,0.07,0.48-0.82.62h-0.31l-0.31-.31-1.38.11,0.29,0.41-0.11.56-0.69.4,1.22,0.55,1.84,1.39,1.4,0.33,0.22,0.28-0.32.51,0.21,0.47,0.71,0.81,0.48-.12,0.93,2,1.77,1.59,0.2-.16,0.47,1.07,0.4,0,0,1.34,0.42,0.74,0.41-.14,0.1-.31,0.33,0.69,0.51,0.24,0.31,0.18,0.2,0.41,0.42,0.32,0.5-.07-0.16.55-0.76.45,0.58,1,0.46,0.18,0.64,0.74-0.21.85-0.55.18,0.45,0.5-0.31.29,0.17,0.28-0.15.18,0.14,0.34-0.78,1.72,0.42,0.45,0,0.72,0.29,0.24,0.26,0.84-0.47,1.74,0.35,1.49-0.14.93-0.48.4-0.33-.27-0.57.14-0.41.54-0.43.26-0.5-.07-0.22.43-1.09-.06,0.1,1.1-1.38-.34-0.29.41-0.49.07,0.27,0.74-0.15.51,1.15,0.95-0.18.23,0.19,0.65-0.89-.49V88.5l-0.29-.06-0.28-.58-1.26.17-0.33.4-0.88-.31-0.19.24,0.21,0.57-0.79.73h-1l-0.3.45-0.22-.09,0.3,0.41,0.26,0.47,0.15,0.13,0.32-.3,0.19,0,0.15,0.16,0.11,0.2,0.1,0.1h0.37l0.22,0.18,0,0.34-0.14.13-0.19.18-0.25.08-0.08.28-0.1.33,0,0.71v0.4l-0.05.25v0.45l0,0.9-0.07.43,0.28,0,0,0.06-0.32.22,0.05,0.12-0.12.13-0.15.07,0.23,0.12,0.26,0.06,0.3-.12,0.31-.07,0.26,0,0.09-.17,0.13-.19L-1151,96l0.2-.11,0.19-.11,0.16-.2,0.06-.15,0.08-.29,0.21-.17,0.2-.19,0.28-.09,0.39-.2,0.35-.15,0.39-.17L-1148,94l0.39-.14,0.14-.29,0.1-.28,0.14,0,0.07-.06,0-.16-0.24-.15-0.19-.21V92.67h0.1l0.11,0.07,0.19,0.18,0.24,0.19,0.1,0.12,0.1,0,0.35-.06,0.2-.22,0.11-.21-0.06-.23-0.19-.22-0.32-.38-0.37-.36-0.31-.33h0.13l0.39,0.3,0.78,0.61,0.19-.12,0.13-.09-0.31-.27V91.63l0.16,0,0.09-.1,0.14-.23,0.23-.06,0.05-.22-0.05-.06-0.51-.18-0.07-.1,0.45,0.06,0-.18,0.16-.1V90.1l-0.18-.14-0.06-.13,0-.11,0-.1,0.11,0,0,0.18,0.08,0.19h0.19l0,0.13,0.07,0.07,0.15-.09,0-.18,0-.25,0.12-.16,0.1,0,0.12,0.24,0.13,0.25,0.21,0-0.15.34,0.37-.25,0.15,0,0.25,0,0.18-.18h0.32l0.3-.19,0.43-.25,0.35-.21,0.26-.06,0.25-.22,0.19,0.07,0.2,0,0.11-.3,0.09-.21,0.09-.18,0.24-.17,0.26,0,0.23,0,0.09,0.11,0.14-.14,0-.19,0.06-.09h0.24l0.1,0,0.18-.31,0.37-.24,0.36,0,0.4-.43h0.23l0.09,0.09h0.18l0.1-.28,0.08-.52,0.09-.24,0.4-.09,0.22-.34,0-.14-0.36-.33V84.75l0.18-.23,0.09-.07,0,0.24,0.14,0.08,0-.07-0.06-.34-0.1-.11-0.06-.21V83.46l0.06-.77,0.14,0.15,0.15,0.13V82.64l-0.2-.13,0-.28-0.05-.37,0.3-.26,0.14-.12,0.13,0.17,0.12,0.3,0.09,0.21,0.07-.1,0-.16-0.18-.22-0.14-.25,0.09-.14,0.21-.28-0.18-.28-0.17-.24-0.19-.26,0-.34V79.37l-0.12-.08,0-.36,0.14-.06-0.09-.3-0.07-.42-0.09-.26,0.27-.25-0.06-.15-0.09-.46-0.06-.19-0.07-.19,0-.47-0.08-.2-0.12-.18-0.07-.19-0.06-.26-0.11-.24V74.83l0-.23-0.1-.26-0.19-.37-0.13-.31-0.12-.25-0.07-.32-0.06-.2,0.05-.18,0.07-.22-0.12-.07-0.13-.29-0.12-.23-0.31,0-0.19-.25-0.19-.19-0.25-.19,0-.13-0.25-.37-0.2-.31,0-.27-0.06-.08-0.18-.06-0.2-.34-0.12-.26,0.16-.18-0.18-.14-0.1.22-0.14,0-0.17-.17,0.13-.29-0.23,0-0.22-.16-0.06-.18-0.2-.06-0.27-.17-0.43-.4-0.4-.26h-0.15l-0.3-.27-0.51-.45-0.42-.33-0.31-.32-0.19-.25-0.07-.2,0-.23-0.25-.17-0.37-.26-0.28-.23-0.29-.27-0.28-.26-0.22-.29-0.16-.28-0.17-.29-0.18-.28-0.14-.35,0-.38,0.13-.26-0.13-.17-0.14-.38-0.13.08-0.17-.14-0.49-.37-0.44-.26-0.48-.49-0.26-.36-0.11-.25-0.12-.27-0.07-.28-0.18-.19-0.19-.25-0.16-.16,0-.29,0-.43,0.11,0,0.17-.06,0-.39,0.16-.16,0.14-.2,0-.11,0-.26,0.08-.15-0.06-.31,0-.29,0.19-.26,0.25-.41,0.06-.3,0-.23,0.14-.07,0.2,0,0.14,0.11h0.15l0.23-.29,0.41-.57,0.19-.18,0.2-.06,0.23-.06,0.29,0,0-.4,0.07-.57-0.07-.18,0-.08,0.39-.36,0-.15,0.13,0,0.14-.08,0-.25,0.17-.12,0.24-.1,0-.5,0.27,0.07,0.36,0,0.36,0,0.19-.17,0.21-.08,0.32-.08,0.36-.34,0.22-.29-0.13-.08-0.09-.17-0.34.27,0-.2,0.1-.15,0.25-.07,0.27-.11,0.12,0.1,0.07,0,0.27-.41,0.19,0,0.11-.1V49l0.16-.1h0.21l0.33,0.12Z" transform="translate(1193.52 -27.76)"/></svg>